<?xml version="1.0" encoding="UTF-8" standalone="no"?>
<!-- Created with Inkscape (http://www.inkscape.org/) -->

<svg
   xmlns:dc="http://purl.org/dc/elements/1.1/"
   xmlns:cc="http://creativecommons.org/ns#"
   xmlns:rdf="http://www.w3.org/1999/02/22-rdf-syntax-ns#"
   xmlns:svg="http://www.w3.org/2000/svg"
   xmlns="http://www.w3.org/2000/svg"
   xmlns:sodipodi="http://sodipodi.sourceforge.net/DTD/sodipodi-0.dtd"
   xmlns:inkscape="http://www.inkscape.org/namespaces/inkscape"
   width="203.10933mm"
   height="203.01514mm"
   viewBox="0 0 203.10933 203.01514"
   version="1.1"
   id="svg4085"
   inkscape:version="0.92.3 (2405546, 2018-03-11)"
   sodipodi:docname="sms-logo.svg">
  <defs
     id="defs4079" />
  <sodipodi:namedview
     id="base"
     pagecolor="#ffffff"
     bordercolor="#666666"
     borderopacity="1.0"
     inkscape:pageopacity="0.0"
     inkscape:pageshadow="2"
     inkscape:zoom="0.49497475"
     inkscape:cx="19.455693"
     inkscape:cy="416.48928"
     inkscape:document-units="mm"
     inkscape:current-layer="layer1"
     showgrid="false"
     inkscape:window-width="1920"
     inkscape:window-height="1025"
     inkscape:window-x="0"
     inkscape:window-y="0"
     inkscape:window-maximized="1" />
  <metadata
     id="metadata4082">
    <rdf:RDF>
      <cc:Work
         rdf:about="">
        <dc:format>image/svg+xml</dc:format>
        <dc:type
           rdf:resource="http://purl.org/dc/dcmitype/StillImage" />
        <dc:title />
      </cc:Work>
    </rdf:RDF>
  </metadata>
  <g
     inkscape:label="Capa 1"
     inkscape:groupmode="layer"
     id="layer1"
     transform="translate(-4.284068,-33.527096)">
    <path
       inkscape:connector-curvature="0"
       id="path3881"
       style="fill:#2e3591;fill-opacity:1;fill-rule:nonzero;stroke:none;stroke-width:0.03527778"
       d="m 191.35965,142.44195 16.03375,-3.76097 -0.37747,-16.12089 -0.0106,-0.49671 -16.60525,-1.86549 c -1.28762,-7.38857 -3.52071,-14.45119 -6.56871,-21.06189 l 12.07559,-11.215865 -8.31145,-13.817597 -0.25752,-0.425805 -15.37724,6.614583 c -4.70146,-5.672312 -10.11978,-10.72797 -16.11453,-15.032212 l 4.9463,-15.75047 -14.06455,-7.888463 -0.43356,-0.243064 -10.0771,13.352286 c -6.78356,-2.567517 -13.97494,-4.304242 -21.45347,-5.076825 l -3.50132,-16.125472 -16.124771,0.11183 -0.497065,0.0035 -2.142067,16.583378 c -9.354605,1.460147 -18.207212,4.431947 -26.304168,8.655755 l -11.791244,-11.493853 -13.387562,8.988778 -0.41275,0.277283 7.352242,14.993055 C 42.510713,76.621723 37.710113,82.288391 33.690918,88.507865 l -15.90675,-4.138436 -7.179381,14.438839 -0.221191,0.444855 13.765741,9.353197 c -2.233789,6.90915 -3.618442,14.20001 -4.023783,21.75157 l -15.841486,4.27426 0.912989,16.09937 0.02822,0.49635 16.559388,1.30599 c 1.525059,7.36423 3.99662,14.38134 7.2771,20.9229 l -11.615561,11.52771 8.765822,13.53467 0.270228,0.41664 15.032566,-7.06473 c 4.902554,5.54425 10.508898,10.45069 16.682508,14.57748 l -4.3815,15.76246 14.318192,7.41751 0.441325,0.22895 9.543343,-13.5576 c 6.88975,2.3495 14.173907,3.84422 21.726877,4.36527 l 4.002265,15.87712 16.11278,-0.64629 0.49636,-0.0198 1.58009,-16.53258 c 5.47334,-1.04528 10.76183,-2.6095 15.81361,-4.63903 V 198.4641 c -9.62025,4.86446 -20.49462,7.60801 -32.0114,7.60801 -39.233132,0 -71.037459,-31.80468 -71.037459,-71.03745 0,-39.23277 31.804327,-71.037451 71.037459,-71.037451 39.23276,0 71.03743,31.804681 71.03743,71.037451 0,19.63385 -7.96572,37.4075 -20.84175,50.26519 v 37.9028 l 12.05441,-7.52652 0.42157,-0.26352 -6.83154,-15.18426 c 5.60952,-4.80837 10.58862,-10.32969 14.8022,-16.4211 l 15.75294,4.6616 7.65528,-14.19331 0.23636,-0.43744 -13.46553,-9.81781 c 2.44828,-6.8333 4.05695,-14.06772 4.699,-21.57835" />
    <path
       inkscape:connector-curvature="0"
       id="path3883"
       style="fill:#b1b1b0;fill-opacity:1;fill-rule:nonzero;stroke:none;stroke-width:0.03527778"
       d="m 105.83927,69.222563 c -20.370455,0 -38.578021,9.256183 -50.649723,23.790627 h 18.710981 l 31.520342,45.00739 31.67168,-45.00739 h 18.9424 v 84.57953 c 9.73879,-11.4748 15.61642,-26.32886 15.61642,-42.55805 0,-36.347052 -29.46506,-65.812107 -65.8121,-65.812107" />
    <path
       inkscape:connector-curvature="0"
       id="path3885"
       style="fill:#b1b1b0;fill-opacity:1;fill-rule:nonzero;stroke:none;stroke-width:0.03527778"
       d="M 105.42087,169.69226 72.99142,123.47273 v 54.72254 H 56.156863 c 12.065707,13.87757 29.849234,22.6515 49.682407,22.6515 11.62085,0 22.53544,-3.01554 32.0114,-8.30156 v -69.07248 l -32.4298,46.21953" />
    <path
       inkscape:connector-curvature="0"
       id="path3887"
       style="fill:#b1b1b0;fill-opacity:1;fill-rule:nonzero;stroke:none;stroke-width:0.03527778"
       d="m 40.026805,135.03467 c 0,15.75964 5.54214,30.22282 14.77998,41.55405 V 93.480618 c -9.23784,11.331222 -14.77998,25.794412 -14.77998,41.554052" />
    <path
       inkscape:connector-curvature="0"
       id="path3889"
       style="fill:#100f0d;fill-opacity:1;fill-rule:nonzero;stroke:none;stroke-width:0.03527778"
       d="m 54.806785,93.01319 v 0.467428 c 0.127352,-0.156278 0.254,-0.31256 0.382762,-0.467428 h -0.382762" />
    <path
       inkscape:connector-curvature="0"
       id="path3891"
       style="fill:#100f0d;fill-opacity:1;fill-rule:nonzero;stroke:none;stroke-width:0.03527778"
       d="m 56.156863,178.19527 c -0.458962,-0.52776 -0.90805,-1.06398 -1.350078,-1.60655" />
  </g>
</svg>
